<?xml version="1.0" encoding="UTF-8" standalone="no"?>
<!-- Created with Inkscape (http://www.inkscape.org/) -->

<svg
   xmlns:dc="http://purl.org/dc/elements/1.1/"
   xmlns:cc="http://creativecommons.org/ns#"
   xmlns:rdf="http://www.w3.org/1999/02/22-rdf-syntax-ns#"
   xmlns:svg="http://www.w3.org/2000/svg"
   xmlns="http://www.w3.org/2000/svg"
   xmlns:sodipodi="http://sodipodi.sourceforge.net/DTD/sodipodi-0.dtd"
   xmlns:inkscape="http://www.inkscape.org/namespaces/inkscape"
   width="1052.3622"
   height="744.09448"
   id="svg2"
   version="1.1"
   inkscape:version="0.48.4 r9939"
   sodipodi:docname="backdoor_schema.svg">
  <sodipodi:namedview
     id="base"
     pagecolor="#ffffff"
     bordercolor="#666666"
     borderopacity="1.0"
     inkscape:pageopacity="0.0"
     inkscape:pageshadow="2"
     inkscape:zoom="1.5104838"
     inkscape:cx="549.93397"
     inkscape:cy="394.59785"
     inkscape:document-units="px"
     inkscape:current-layer="layer1"
     showgrid="false"
     inkscape:snap-global="true"
     inkscape:window-width="1280"
     inkscape:window-height="970"
     inkscape:window-x="-2"
     inkscape:window-y="31"
     inkscape:window-maximized="1" />
  <defs
     id="defs4">
    <marker
       inkscape:stockid="Arrow1Lend"
       orient="auto"
       refY="0.0"
       refX="0.0"
       id="Arrow1Lend"
       style="overflow:visible;">
      <path
         id="path3780"
         d="M 0.0,0.0 L 5.0,-5.0 L -12.5,0.0 L 5.0,5.0 L 0.0,0.0 z "
         style="fill-rule:evenodd;stroke:#000000;stroke-width:1.0pt;"
         transform="scale(0.8) rotate(180) translate(12.5,0)" />
    </marker>
    <marker
       inkscape:stockid="Arrow1Lstart"
       orient="auto"
       refY="0.0"
       refX="0.0"
       id="Arrow1Lstart"
       style="overflow:visible">
      <path
         id="path3777"
         d="M 0.0,0.0 L 5.0,-5.0 L -12.5,0.0 L 5.0,5.0 L 0.0,0.0 z "
         style="fill-rule:evenodd;stroke:#000000;stroke-width:1.0pt"
         transform="scale(0.8) translate(12.5,0)" />
    </marker>
    <marker
       inkscape:stockid="Arrow1LstartM"
       orient="auto"
       refY="0.0"
       refX="0.0"
       id="Arrow1LstartM"
       style="overflow:visible">
      <path
         id="path4786"
         d="M 0.0,0.0 L 5.0,-5.0 L -12.5,0.0 L 5.0,5.0 L 0.0,0.0 z "
         style="stroke:#ff0000;stroke-width:1.0pt;fill:#ff0000;fill-rule:evenodd"
         transform="scale(0.8) translate(12.5,0)" />
    </marker>
    <marker
       inkscape:stockid="Arrow1LendM"
       orient="auto"
       refY="0.0"
       refX="0.0"
       id="Arrow1LendM"
       style="overflow:visible;">
      <path
         id="path4789"
         d="M 0.0,0.0 L 5.0,-5.0 L -12.5,0.0 L 5.0,5.0 L 0.0,0.0 z "
         style="stroke:#ff0000;stroke-width:1.0pt;fill:#ff0000;fill-rule:evenodd"
         transform="scale(0.8) rotate(180) translate(12.5,0)" />
    </marker>
    <marker
       inkscape:stockid="Arrow1LstartQ"
       orient="auto"
       refY="0.0"
       refX="0.0"
       id="Arrow1LstartQ"
       style="overflow:visible">
      <path
         id="path4792"
         d="M 0.0,0.0 L 5.0,-5.0 L -12.5,0.0 L 5.0,5.0 L 0.0,0.0 z "
         style="stroke:#ff0000;stroke-width:1.0pt;fill:#ff0000;fill-rule:evenodd"
         transform="scale(0.8) translate(12.5,0)" />
    </marker>
    <marker
       inkscape:stockid="Arrow1Lendj"
       orient="auto"
       refY="0.0"
       refX="0.0"
       id="Arrow1Lendj"
       style="overflow:visible;">
      <path
         id="path4795"
         d="M 0.0,0.0 L 5.0,-5.0 L -12.5,0.0 L 5.0,5.0 L 0.0,0.0 z "
         style="stroke:#ff0000;stroke-width:1.0pt;fill:#ff0000;fill-rule:evenodd"
         transform="scale(0.8) rotate(180) translate(12.5,0)" />
    </marker>
    <marker
       inkscape:stockid="Arrow1Lstartq"
       orient="auto"
       refY="0.0"
       refX="0.0"
       id="Arrow1Lstartq"
       style="overflow:visible">
      <path
         id="path4452"
         d="M 0.0,0.0 L 5.0,-5.0 L -12.5,0.0 L 5.0,5.0 L 0.0,0.0 z "
         style="stroke:#ff0000;stroke-width:1.0pt;fill:#ff0000;fill-rule:evenodd"
         transform="scale(0.8) translate(12.5,0)" />
    </marker>
    <marker
       inkscape:stockid="Arrow1LendG"
       orient="auto"
       refY="0.0"
       refX="0.0"
       id="Arrow1LendG"
       style="overflow:visible;">
      <path
         id="path4455"
         d="M 0.0,0.0 L 5.0,-5.0 L -12.5,0.0 L 5.0,5.0 L 0.0,0.0 z "
         style="stroke:#ff0000;stroke-width:1.0pt;fill:#ff0000;fill-rule:evenodd"
         transform="scale(0.8) rotate(180) translate(12.5,0)" />
    </marker>
    <marker
       inkscape:stockid="Arrow1Lendv"
       orient="auto"
       refY="0.0"
       refX="0.0"
       id="Arrow1Lendv"
       style="overflow:visible;">
      <path
         id="path4756"
         d="M 0.0,0.0 L 5.0,-5.0 L -12.5,0.0 L 5.0,5.0 L 0.0,0.0 z "
         style="stroke:#ff0000;stroke-width:1.0pt;fill:#ff0000;fill-rule:evenodd"
         transform="scale(0.8) rotate(180) translate(12.5,0)" />
    </marker>
    <marker
       inkscape:stockid="Arrow1Lstarts"
       orient="auto"
       refY="0.0"
       refX="0.0"
       id="Arrow1Lstarts"
       style="overflow:visible">
      <path
         id="path5271"
         d="M 0.0,0.0 L 5.0,-5.0 L -12.5,0.0 L 5.0,5.0 L 0.0,0.0 z "
         style="stroke:#ff0000;stroke-width:1.0pt;fill:#ff0000;fill-rule:evenodd"
         transform="scale(0.8) translate(12.5,0)" />
    </marker>
    <marker
       inkscape:stockid="Arrow1LendvK"
       orient="auto"
       refY="0.0"
       refX="0.0"
       id="Arrow1LendvK"
       style="overflow:visible;">
      <path
         id="path5274"
         d="M 0.0,0.0 L 5.0,-5.0 L -12.5,0.0 L 5.0,5.0 L 0.0,0.0 z "
         style="fill-rule:evenodd;stroke:#ff0000;stroke-width:1.0pt;fill:#ff0000"
         transform="scale(0.8) rotate(180) translate(12.5,0)" />
    </marker>
  </defs>
  <metadata
     id="metadata7">
    <rdf:RDF>
      <cc:Work
         rdf:about="">
        <dc:format>image/svg+xml</dc:format>
        <dc:type
           rdf:resource="http://purl.org/dc/dcmitype/StillImage" />
        <dc:title />
      </cc:Work>
    </rdf:RDF>
  </metadata>
  <g
     inkscape:label="Calque 1"
     inkscape:groupmode="layer"
     id="layer1"
     transform="translate(0,-308.2677)">
    <rect
       style="fill:none;stroke:#000000;stroke-width:1.52959728;stroke-miterlimit:4;stroke-opacity:1;stroke-dasharray:none"
       id="rect2991"
       width="201.03279"
       height="131.65462"
       x="201.21532"
       y="533.94122"
       ry="36.054794" />
    <rect
       ry="36.054794"
       y="533.94122"
       x="642.98425"
       height="131.65462"
       width="201.03279"
       id="rect3761"
       style="fill:none;stroke:#000000;stroke-width:1.52959728;stroke-miterlimit:4;stroke-opacity:1;stroke-dasharray:none" />
    <path
       style="fill:none;stroke:#ff0000;stroke-width:1.41442418;stroke-linecap:butt;stroke-linejoin:miter;stroke-miterlimit:4;stroke-opacity:1;stroke-dasharray:none;marker-start:url(#Arrow1LstartQ);marker-mid:none;marker-end:url(#Arrow1Lendj)"
       d="m 428.59149,589.73716 189.33617,0"
       id="path3769"
       inkscape:connector-curvature="0" />
    <path
       inkscape:connector-curvature="0"
       id="path3771"
       d="m 428.59149,609.96833 189.33617,0"
       style="fill:none;stroke:#ff0000;stroke-width:1.41442418;stroke-linecap:butt;stroke-linejoin:miter;stroke-miterlimit:4;stroke-opacity:1;stroke-dasharray:none;marker-start:url(#Arrow1LstartM);marker-mid:none;marker-end:url(#Arrow1LendM)" />
    <text
       sodipodi:linespacing="125%"
       id="text3002"
       y="575.74072"
       x="440.9006"
       style="font-size:19.69950104px;font-style:normal;font-variant:normal;font-weight:normal;font-stretch:normal;line-height:125%;letter-spacing:0px;word-spacing:0px;fill:#ff0000;fill-opacity:1;stroke:none;font-family:Liberation Serif;-inkscape-font-specification:Liberation Serif"
       xml:space="preserve"><tspan
         id="tspan3016"
         y="575.74072"
         x="440.9006"
         sodipodi:role="line">Connexion sécurisée</tspan><tspan
         id="tspan3022"
         y="600.36505"
         x="440.9006"
         sodipodi:role="line" /></text>
    <text
       sodipodi:linespacing="125%"
       id="text3024"
       y="632.74219"
       x="486.2352"
       style="font-size:19.69950104px;font-style:normal;font-variant:normal;font-weight:normal;font-stretch:normal;line-height:125%;letter-spacing:0px;word-spacing:0px;fill:#ff0000;fill-opacity:1;stroke:none;font-family:Liberation Serif;-inkscape-font-specification:Liberation Serif"
       xml:space="preserve"><tspan
         y="632.74219"
         x="486.2352"
         id="tspan3026"
         sodipodi:role="line">et cryptée</tspan></text>
    <text
       sodipodi:linespacing="125%"
       id="text3028"
       y="478.9827"
       x="301.8757"
       style="font-size:19.69950104px;font-style:normal;font-variant:normal;font-weight:normal;font-stretch:normal;line-height:125%;letter-spacing:0px;word-spacing:0px;fill:#000000;fill-opacity:1;stroke:none;font-family:Liberation Serif;-inkscape-font-specification:Liberation Serif"
       xml:space="preserve"><tspan
         style="font-size:15.75960255px;text-align:center;text-anchor:middle"
         y="478.9827"
         x="301.8757"
         id="tspan3030"
         sodipodi:role="line">Programme de messagerie</tspan><tspan
         id="tspan3032"
         style="font-size:15.75960255px;text-align:center;text-anchor:middle"
         y="498.68219"
         x="301.8757"
         sodipodi:role="line">lamba comportant</tspan><tspan
         id="tspan3034"
         style="font-size:15.75960255px;text-align:center;text-anchor:middle"
         y="518.38171"
         x="301.8757"
         sodipodi:role="line">un backdoor</tspan></text>
    <text
       xml:space="preserve"
       style="font-size:19.69950104px;font-style:normal;font-variant:normal;font-weight:normal;font-stretch:normal;line-height:125%;letter-spacing:0px;word-spacing:0px;fill:#000000;fill-opacity:1;stroke:none;font-family:Liberation Serif;-inkscape-font-specification:Liberation Serif"
       x="741.13727"
       y="491.43814"
       id="text3036"
       sodipodi:linespacing="125%"><tspan
         sodipodi:role="line"
         id="tspan3038"
         x="741.13727"
         y="491.43814"
         style="font-size:15.75960255px;text-align:center;text-anchor:middle">Programme de messagerie</tspan><tspan
         sodipodi:role="line"
         x="741.13727"
         y="511.13766"
         style="font-size:15.75960255px;text-align:center;text-anchor:middle"
         id="tspan3042">lamba sans backdoor</tspan></text>
    <path
       inkscape:connector-curvature="0"
       id="path3046"
       d="m 200.85825,598.13972 200.94768,0"
       style="fill:none;stroke:#000000;stroke-width:1.31330013px;stroke-linecap:butt;stroke-linejoin:miter;stroke-opacity:1" />
    <text
       sodipodi:linespacing="125%"
       id="text3048"
       y="552.64172"
       x="301.66052"
       style="font-size:19.69950104px;font-style:normal;font-variant:normal;font-weight:normal;font-stretch:normal;text-align:center;line-height:125%;letter-spacing:0px;word-spacing:0px;text-anchor:middle;fill:#000000;fill-opacity:1;stroke:none;font-family:Liberation Serif;-inkscape-font-specification:Liberation Serif"
       xml:space="preserve"><tspan
         style="fill:#0000ff"
         y="552.64172"
         x="301.66052"
         id="tspan3050"
         sodipodi:role="line">Traitement des</tspan><tspan
         style="fill:#0000ff"
         id="tspan3052"
         y="577.26605"
         x="301.66052"
         sodipodi:role="line">données</tspan></text>
    <path
       inkscape:connector-curvature="0"
       id="path3054"
       d="m 181.69267,598.14538 -78.8288,0"
       style="fill:#ff0000;fill-opacity:1;stroke:#ff0000;stroke-width:1.45119655;stroke-linecap:butt;stroke-linejoin:miter;stroke-miterlimit:4;stroke-opacity:1;stroke-dasharray:none;marker-start:url(#Arrow1Lstartq);marker-end:url(#Arrow1LendG)" />
    <text
       xml:space="preserve"
       style="font-size:19.69950104px;font-style:normal;font-variant:normal;font-weight:normal;font-stretch:normal;line-height:125%;letter-spacing:0px;word-spacing:0px;fill:#008000;fill-opacity:1;stroke:none;font-family:Liberation Serif;-inkscape-font-specification:Liberation Serif"
       x="5.7231121"
       y="601.87634"
       id="text4520"
       sodipodi:linespacing="125%"><tspan
         sodipodi:role="line"
         id="tspan4522"
         x="5.7231121"
         y="601.87634">Utilisateur</tspan></text>
    <path
       style="fill:#ff0000;fill-opacity:1;stroke:#ff0000;stroke-width:1.45119655;stroke-linecap:butt;stroke-linejoin:miter;stroke-miterlimit:4;stroke-opacity:1;stroke-dasharray:none;marker-start:url(#Arrow1Lstartq);marker-end:url(#Arrow1LendG)"
       d="m 862.76697,598.14538 78.82878,0"
       id="path4526"
       inkscape:connector-curvature="0" />
    <text
       sodipodi:linespacing="125%"
       id="text4528"
       y="601.87634"
       x="955.40802"
       style="font-size:19.69950104px;font-style:normal;font-variant:normal;font-weight:normal;font-stretch:normal;line-height:125%;letter-spacing:0px;word-spacing:0px;fill:#008000;fill-opacity:1;stroke:none;font-family:Liberation Serif;-inkscape-font-specification:Liberation Serif"
       xml:space="preserve"><tspan
         y="601.87634"
         x="955.40802"
         id="tspan4530"
         sodipodi:role="line">Utilisateur</tspan></text>
    <text
       xml:space="preserve"
       style="font-size:19.69950104px;font-style:normal;font-variant:normal;font-weight:normal;font-stretch:normal;text-align:center;line-height:125%;letter-spacing:0px;word-spacing:0px;text-anchor:middle;fill:#000000;fill-opacity:1;stroke:none;font-family:Liberation Serif;-inkscape-font-specification:Liberation Serif"
       x="743.48584"
       y="592.25385"
       id="text4532"
       sodipodi:linespacing="125%"><tspan
         sodipodi:role="line"
         id="tspan4534"
         x="743.48584"
         y="592.25385"
         style="fill:#0000ff">Traitement des</tspan><tspan
         sodipodi:role="line"
         x="743.48584"
         y="616.87817"
         id="tspan4536"
         style="fill:#0000ff">données</tspan></text>
    <path
       style="fill:none;stroke:#ff0000;stroke-width:1.574646;stroke-linecap:butt;stroke-linejoin:miter;stroke-miterlimit:4;stroke-opacity:1;stroke-dasharray:none;marker-start:url(#Arrow1Lstarts);marker-end:url(#Arrow1LendvK)"
       d="m 301.61631,580.72455 0,47.5245"
       id="path4538"
       inkscape:connector-curvature="0" />
    <flowRoot
       transform="translate(0,308.2677)"
       style="font-size:15px;font-style:normal;font-variant:normal;font-weight:normal;font-stretch:normal;line-height:125%;letter-spacing:0px;word-spacing:0px;fill:#000000;fill-opacity:1;stroke:none;font-family:Liberation Serif;-inkscape-font-specification:Liberation Serif"
       id="flowRoot4841"
       xml:space="preserve"><flowRegion
         id="flowRegion4843"><rect
           y="347.97852"
           x="321.45303"
           height="16.542089"
           width="20.118757"
           id="rect4845" /></flowRegion><flowPara
         id="flowPara4847">Backdoor</flowPara></flowRoot>    <text
       sodipodi:linespacing="125%"
       id="text4849"
       y="644.57666"
       x="261.30417"
       style="font-size:19.69950104px;font-style:normal;font-variant:normal;font-weight:normal;font-stretch:normal;line-height:125%;letter-spacing:0px;word-spacing:0px;fill:#aa8800;fill-opacity:1;stroke:none;font-family:Liberation Serif;-inkscape-font-specification:Liberation Serif"
       xml:space="preserve"><tspan
         y="644.57666"
         x="261.30417"
         id="tspan4851"
         sodipodi:role="line">Backdoor</tspan></text>
    <text
       xml:space="preserve"
       style="font-size:19.69950104px;font-style:normal;font-variant:normal;font-weight:normal;font-stretch:normal;line-height:125%;letter-spacing:0px;word-spacing:0px;fill:#ff720a;fill-opacity:0.77180966;stroke:none;font-family:Liberation Serif;-inkscape-font-specification:Liberation Serif"
       x="461.22366"
       y="725.23254"
       id="text5421"
       sodipodi:linespacing="125%"><tspan
         sodipodi:role="line"
         id="tspan5423"
         x="461.22366"
         y="725.23254">Internet</tspan></text>
    <path
       style="fill:none;stroke:#ff0000;stroke-width:1.30410695;stroke-linecap:butt;stroke-linejoin:miter;stroke-miterlimit:4;stroke-opacity:1;stroke-dasharray:none;marker-start:url(#Arrow1LstartM);marker-end:url(#Arrow1Lendj)"
       d="m 337.74463,648.59863 243.37755,59.80288"
       id="path5425"
       inkscape:connector-curvature="0"
       sodipodi:nodetypes="cc" />
    <text
       xml:space="preserve"
       style="font-size:19.69950104px;font-style:normal;font-variant:normal;font-weight:normal;font-stretch:normal;line-height:125%;letter-spacing:0px;word-spacing:0px;fill:#008000;fill-opacity:1;stroke:none;font-family:Liberation Serif;-inkscape-font-specification:Liberation Serif"
       x="591.91406"
       y="713.37439"
       id="text5631"
       sodipodi:linespacing="125%"><tspan
         sodipodi:role="line"
         id="tspan5633"
         x="591.91406"
         y="713.37439">Pirate, NSA, développeur...</tspan></text>
    <path
       style="fill:none;stroke:#ff720a;stroke-width:1.16676414px;stroke-linecap:butt;stroke-linejoin:miter;stroke-opacity:0.77254902"
       d="m 567.396,682.23794 c 0.94469,0.61921 2.09034,0.76119 3.1355,1.14177 1.04519,0.38059 2.09034,0.76118 3.13552,1.14175 1.98188,0.72169 5.34764,2.04459 7.3162,2.28355 5.31974,0.6457 10.52504,-1.15779 15.67756,-2.28355 4.01267,-0.87669 6.04095,-0.79909 9.40655,-3.42527 1.20277,-0.93853 2.09035,-2.28353 3.13551,-3.4253 0.69679,-0.76119 1.58336,-1.36048 2.09035,-2.28354 0.56682,-1.03201 0.74251,-2.26806 1.04516,-3.42528 0.39463,-1.50883 0.86701,-3.00998 1.04518,-4.56706 0.67628,-5.91021 -1.18762,-10.66491 -3.13552,-15.98471 -0.69677,-1.90293 -1.1792,-3.91722 -2.09033,-5.70883 -0.84598,-1.66346 -2.09035,-3.0447 -3.13552,-4.56705 -1.04517,-1.52235 -1.90376,-3.22148 -3.13551,-4.56706 -1.97305,-2.15539 -5.71206,-4.6235 -8.36137,-5.70882 -1.34499,-0.55098 -2.7995,-0.71067 -4.18069,-1.14176 -4.81489,-1.50282 -1.38126,-1.14177 -6.27102,-1.14177 -0.69679,0 -1.42932,-0.24071 -2.09035,0 -0.46742,0.17019 -0.60449,0.90107 -1.04516,1.14177 -0.31163,0.17021 -0.79885,-0.26912 -1.04519,0 -0.79105,0.86417 1.9241,3.37989 2.09035,3.42529 0.46853,0.12795 7.91462,0.13944 8.36137,0 1.4981,-0.46759 2.74862,-1.61306 4.18069,-2.28353 1.01262,-0.47409 2.21884,-0.47416 3.1355,-1.14176 1.22985,-0.89568 1.93275,-2.48677 3.13552,-3.4253 9.96916,-5.44524 -1.15824,1.2344 7.31621,-5.70881 1.62516,-1.33153 3.69703,-1.96396 5.22584,-3.4253 1.31097,-1.2531 1.98844,-3.13496 3.13552,-4.56707 1.29778,-1.62024 2.78713,-3.0447 4.18069,-4.56705 1.04516,-1.14177 2.27638,-2.11135 3.13551,-3.42529 0.9056,-1.38502 1.39356,-3.04472 2.09035,-4.56705 2.58304,-5.64353 1.59764,-2.95236 3.1355,-7.99237 0.3484,-1.14176 0.86406,-2.23813 1.04519,-3.42529 0.17181,-1.12623 0,-2.28352 0,-3.42529 0,-4.4018 0.44067,-4.20495 -1.04519,-7.99235 -0.61373,-1.56443 -1.47659,-3.00263 -2.09034,-4.56706 -0.43397,-1.10622 -0.49857,-2.38034 -1.04516,-3.4253 -1.78771,-3.41764 -3.79995,-5.29288 -6.27103,-7.99234 -2.9971,-3.2741 -4.03249,-4.95903 -8.36138,-6.85059 -1.64938,-0.72073 -3.4839,-0.76119 -5.22585,-1.14177 -1.74196,-0.38059 -3.44941,-1.14176 -5.22586,-1.14176 -4.52516,0 -6.25942,2.05136 -10.45171,3.42528 -1.70154,0.55764 -3.54057,0.52809 -5.22586,1.14178 -7.5781,2.75948 -1.48768,1.08345 -6.27103,4.56706 -0.8492,0.61844 -2.83067,-1.61751 -1.04517,2.28352 0.15581,0.34041 0.71466,-0.12036 1.04517,0 0.73904,0.26911 1.33458,0.93535 2.09036,1.14176 0.67596,0.18462 1.39354,0 2.09034,0 1.04517,0 2.14398,0.36106 3.13551,0 1.19166,-0.43393 1.94383,-1.84959 3.1355,-2.28352 0.99154,-0.36107 2.20069,0.51061 3.13552,0 1.32205,-0.72212 1.93275,-2.48677 3.13552,-3.4253 1.26783,-0.98929 2.91286,-1.29424 4.18067,-2.28352 3.33833,-2.6049 6.09818,-7.70911 8.36139,-11.41766 0.69676,-1.14177 1.74525,-2.10585 2.09033,-3.4253 0.38285,-1.46376 -0.17284,-3.05646 0,-4.56705 0.17817,-1.5571 1.04517,-2.99786 1.04517,-4.56705 0,-0.85102 -0.89238,-1.44904 -1.04517,-2.28353 -0.20497,-1.1196 0.33052,-2.34212 0,-3.4253 -0.39722,-1.30181 -1.44407,-2.24862 -2.09033,-3.42529 -0.40081,-0.72975 -0.64438,-1.55378 -1.04518,-2.28354 -0.64628,-1.17666 -1.44406,-2.24861 -2.09034,-3.42529 -1.32367,-2.41 -1.77498,-5.27376 -4.18069,-6.85058 -0.9447,-0.6192 -2.11259,-0.69479 -3.13552,-1.14177 -1.56156,-0.68236 -3.49264,-2.28353 -5.22585,-2.28353 -1.43646,0 -2.78712,0.76118 -4.18068,1.14178 -4.37555,1.19496 -8.39451,2.55333 -12.54207,4.56705 -2.84752,1.38252 -5.57424,3.04471 -8.36136,4.56705 -1.39355,0.76118 -2.81871,1.45696 -4.18069,2.28353 -2.19684,1.33326 -6.0746,3.92447 -8.36136,5.70883 -1.4175,1.10607 -2.7632,2.31923 -4.18069,3.42529 -1.02217,0.79758 -2.24729,1.31322 -3.13551,2.28353 -0.88823,0.97032 -1.20212,2.45498 -2.09035,3.42529 -0.55086,0.60176 -1.65821,0.43368 -2.09033,1.14176 -0.38652,0.63333 0,1.52235 0,2.28354 0,0.38057 -0.15582,0.80134 0,1.14176 0.22032,0.48139 0.57774,0.97157 1.04516,1.14177 0.66103,0.24071 1.39356,0 2.09035,0 0.34837,0 0.79881,0.26912 1.04517,0 0.55086,-0.60177 0.57775,-1.60272 1.04518,-2.28353 1.18246,-1.72235 3.16671,-2.72095 4.18067,-4.56706 0.56683,-1.03201 0.636,-2.30785 1.04517,-3.42529 0.9748,-2.66219 1.59515,-2.46304 2.09034,-5.70883 0.17184,-1.12624 -0.20497,-2.3057 0,-3.4253 0.76705,-4.18963 2.04543,-0.24531 1.04518,-5.70881 -0.15278,-0.83449 -0.69677,-1.52235 -1.04518,-2.28353 -0.34839,-0.76118 -0.57774,-1.60271 -1.04516,-2.28353 -0.59124,-0.86118 -1.49911,-1.42237 -2.09035,-2.28352 -4.20223,-6.12082 3.78783,2.39689 -4.18067,-4.56706 -0.76948,-0.67247 -1.20899,-1.80212 -2.09035,-2.28353 -2.46661,-1.34729 -4.8496,-0.93625 -7.3162,-2.28353 -1.12353,-0.61368 -1.9277,-1.90657 -3.13552,-2.28355 -1.33994,-0.41821 -2.78713,0 -4.18069,0 -1.04516,0 -2.09034,0 -3.1355,0 -1.39356,0 -2.82032,-0.33024 -4.18069,0 -4.53813,1.10169 -5.86516,2.80733 -9.40655,5.70883 -1.39356,1.14178 -2.78711,2.28353 -4.18067,3.4253 -2.78713,2.28354 -5.57425,4.56706 -8.36138,6.85059 -1.39356,1.14176 -2.85809,2.18687 -4.18068,3.42528 -1.12225,1.05084 -2.09035,2.28353 -3.13552,3.4253 -2.34979,2.56694 -3.87038,3.97843 -3.13552,7.99236 0.54129,2.95659 0.95235,1.56055 2.09035,3.42529 0.43213,0.7081 0.61304,1.57544 1.04517,2.28353 0.2733,0.44784 0.69677,0.76117 1.04517,1.14176 0.69679,0.7612 1.39356,1.52235 2.09035,2.28353 0.34838,0.38058 0.69677,1.52234 1.04518,1.14177 1.29151,-1.41088 -0.42057,-2.74294 -1.04518,-3.4253 -0.69679,-0.76117 -1.39356,-1.52234 -2.09035,-2.28352 -0.69677,-0.76119 -1.20897,-1.80213 -2.09034,-2.28353 -0.62323,-0.34041 -1.39356,0 -2.09035,0 -1.39355,0 -2.78713,0 -4.18068,0 -2.43873,0 -4.89238,-0.2942 -7.31619,0 -1.7656,0.21431 -3.48391,0.76117 -5.22584,1.14176 -1.74198,0.38058 -3.52435,0.58413 -5.22588,1.14177 -1.79702,0.58892 -3.4839,1.52235 -5.22586,2.28352 -1.74196,0.7612 -3.58581,1.28819 -5.22584,2.28353 -1.52275,0.92416 -2.70353,2.41673 -4.18069,3.4253 -5.02704,3.43226 -4.23814,0.84484 -8.36138,6.8506 -0.93483,1.36162 -1.31733,3.08926 -2.09035,4.56705 -0.62321,1.19142 -1.6931,2.12347 -2.09034,3.42528 -0.3305,1.08317 0.17183,2.29907 0,3.4253 -0.36223,2.37429 -1.77873,4.46773 -2.09034,6.85058 -0.19706,1.50706 0.19707,3.06002 0,4.56706 -0.46938,3.58946 -1.90495,3.09363 -1.04516,6.8506 0.11949,0.52216 0.88936,0.63115 1.04516,1.14176 0.22035,0.72212 -0.38649,1.65018 0,2.28353 0.43213,0.70809 1.39355,0.76117 2.09034,1.14177 0.6968,0.38058 1.39357,0.76117 2.09034,1.14175 0.69679,0.38059 1.3346,0.93536 2.09035,1.14177 0.67597,0.1846 1.39357,0 2.09034,0 0.69679,0 1.41437,0.1846 2.09035,0 3.03123,-0.82785 1.22313,-0.89078 3.13552,-2.28352 0.64818,-0.47206 1.53948,-0.54 2.09033,-1.14177 4.07903,-4.45599 -0.24193,-0.61319 1.04518,-3.42529 0.85806,-1.87474 3.36129,-0.89512 0,-4.56706 -0.4927,-0.53824 -1.41436,0.18461 -2.09034,0 -3.91411,-1.06895 -0.34081,-2.77641 -6.27104,0 -1.15458,0.54054 -2.04488,1.60271 -3.13551,2.28352 -1.35277,0.84446 -2.93424,1.26231 -4.18068,2.28354 -1.57663,1.29175 -2.62503,3.24527 -4.18068,4.56706 -1.60354,1.36244 -3.62234,2.06283 -5.22587,3.42529 -1.55564,1.32178 -2.78711,3.0447 -4.18068,4.56704 -5.75808,6.29025 -2.94954,2.88591 -8.36137,10.27591 -2.80913,3.83593 -5.43759,6.90272 -7.31619,11.41763 -1.77771,4.27237 -3.63289,12.33902 -4.1807,17.12647 -0.12962,1.13295 0,2.28353 0,3.4253 0,3.20311 -0.33051,3.84493 1.04517,6.85059 2.45384,5.36121 1.57116,1.43645 3.13553,5.70882 0.40916,1.11744 0.47834,2.39327 1.04516,3.42529 1.7455,3.17802 1.9171,1.5707 4.18068,3.42529 0.78832,0.64587 1.20899,1.80212 2.09035,2.28353 0.62322,0.34042 1.40708,-0.14927 2.09034,0 3.26952,0.71434 2.84734,1.88979 6.27103,1.14176 0.7639,-0.1669 1.36703,-0.82569 2.09034,-1.14176 1.02292,-0.44698 2.09034,-0.76118 3.13551,-1.14177 1.04518,-0.38057 2.3565,-0.29073 3.13553,-1.14176 0.77901,-0.85102 0.47834,-2.39328 1.04517,-3.42529 0.50698,-0.92305 1.39355,-1.52235 2.09034,-2.28354 0.34838,-0.38059 0.82482,-0.66035 1.04516,-1.14175 0.1558,-0.34041 -0.11018,-0.78071 0,-1.14177 0.24635,-0.80735 1.04518,-1.43251 1.04518,-2.28353 0,-0.53822 -0.82483,-0.66035 -1.04518,-1.14175 -0.1558,-0.34044 0.19325,-0.82511 0,-1.14177 -2.63757,-4.322 -6.49666,-4.13521 -10.45171,-2.28354 -1.43208,0.67047 -2.91285,1.29423 -4.18068,2.28354 -1.20278,0.93853 -2.01326,2.37446 -3.13552,3.4253 -1.32257,1.23841 -2.94893,2.07969 -4.18068,3.42527 -1.23175,1.3456 -2.00186,3.12225 -3.13551,4.56706 -0.96194,1.22598 -2.27639,2.11136 -3.13551,3.4253 -0.90561,1.38501 -1.39358,3.04471 -2.09035,4.56706 -0.69678,1.52236 -1.59764,2.95237 -2.09035,4.56706 -1.31846,4.32096 -1.04517,6.02796 -1.04517,10.27588 0,1.90295 -0.19236,3.81752 0,5.70883 0.15863,1.55961 0.88655,3.00744 1.04517,4.56705 0.19237,1.8913 -0.19235,3.81753 0,5.70882 0.21873,2.15049 1.42972,5.82731 2.09035,7.99236 0.69677,2.28352 1.27201,4.6157 2.09035,6.85058 0.2893,0.79016 0.57774,1.60272 1.04516,2.28353 0.59124,0.86118 1.39356,1.52236 2.09035,2.28353 0.69677,0.76118 1.24537,1.72969 2.09033,2.28354 0.94471,0.6192 2.11262,0.69479 3.13552,1.14176 0.7233,0.31606 1.32192,1.00187 2.09034,1.14176 1.37461,0.25028 2.78713,0 4.18068,0 2.43875,0 4.87748,0 7.31621,0 1.04517,0 2.09035,0 3.13552,0 1.39355,0 2.80608,0.25028 4.18068,0 0.76841,-0.13989 1.39356,-0.76117 2.09034,-1.14176 0.69678,-0.3806 1.44216,-0.66971 2.09034,-1.14176 0.40995,-0.29857 0.69677,-0.76119 1.04517,-1.14176 0.3484,-0.3806 0.82484,-0.66036 1.04517,-1.14178 0.15582,-0.34041 0,-0.76117 0,-1.14177 0,-0.76116 0.16899,-1.54507 0,-2.28352 -0.27491,-1.20131 -2.76086,-5.29955 -3.13552,-5.70883 -0.55085,-0.60176 -1.42233,-0.70391 -2.09034,-1.14177 -1.07712,-0.706 -1.94383,-1.84958 -3.1355,-2.28352 -0.99153,-0.36106 -2.09034,0 -3.13551,0 -1.04518,0 -2.14398,-0.36106 -3.13553,0 -1.19168,0.43394 -2.17052,1.40505 -3.13551,2.28352 -3.54643,3.2285 -5.29428,7.00014 -7.3162,11.41767 -0.69678,1.52235 -1.75235,2.90553 -2.09034,4.56705 -0.37789,1.85762 0.15772,3.81369 0,5.70883 -0.589,7.07784 -1.65553,5.89166 -1.04517,12.55939 0.17676,1.93099 0.849,3.78008 1.04517,5.70884 0.60442,5.9425 -0.96101,3.28986 1.04517,9.13411 0.87894,2.56042 3.57669,8.02391 5.22585,10.27589 0.61558,0.84057 1.39358,1.52235 2.09034,2.28352 0.69679,0.76119 1.39358,1.52235 2.09034,2.28353 0.3484,0.38058 0.63524,0.84321 1.04518,1.14178 1.29637,0.94412 2.78713,1.52233 4.1807,2.28352 0.69677,0.38059 1.33458,0.93536 2.09034,1.14175 0.67596,0.18462 1.39355,0 2.09033,0 1.04518,0 2.11063,0.22392 3.13552,0 1.30365,-0.28482 4.5223,-3.041 5.22585,-3.42527 0.9854,-0.53825 2.19081,-0.52258 3.13552,-1.14178 0.84496,-0.55382 1.24536,-1.72968 2.09035,-2.28353 0.94469,-0.6192 2.15012,-0.60354 3.13551,-1.14175 3.16324,-1.72781 7.82493,-6.82032 9.40653,-10.27589 0.4927,-1.07648 0.63601,-2.30786 1.04518,-3.4253 0.28931,-0.79015 0.79882,-1.47618 1.04516,-2.28353 0.11019,-0.36105 0,-0.76118 0,-1.14176 0,-0.76118 0.31162,-1.60271 0,-2.28352 -0.1558,-0.34043 -0.71465,0.12036 -1.04516,0 -0.73905,-0.26912 -1.31132,-1.14177 -2.09035,-1.14177 -0.77901,0 -1.39356,0.76117 -2.09033,1.14177 -0.6968,0.38056 -1.46713,0.63114 -2.09035,1.14176 -0.78832,0.64587 -1.47477,1.44295 -2.09033,2.28352 -1.31069,1.78977 -3.56761,5.98311 -4.18069,7.99235 -0.56176,1.84104 -0.65981,3.81441 -1.04517,5.70883 -0.96945,4.76564 -1.64935,4.99576 -1.0452,10.27587 0.13668,1.19424 0.6968,2.28353 1.0452,3.4253 0.34838,1.14176 0.55247,2.34882 1.04517,3.42529 1.79429,3.92026 4.10068,5.65058 7.3162,7.99237 1.04517,0.76116 2.01198,1.66984 3.1355,2.28352 1.67065,0.91251 5.75345,1.79577 7.3162,2.28354 2.91596,0.91011 3.18276,1.70403 6.27103,1.14176 1.08672,-0.19786 2.09035,-0.76119 3.13551,-1.14176 2.09035,-0.76119 4.24578,-1.33536 6.27103,-2.28354 5.57426,-2.60974 2.41398,-1.89521 7.3162,-3.42529 9.18662,-2.86734 -0.20169,0.45403 7.3162,-2.28352 1.04517,-0.3806 2.15012,-0.60355 3.13552,-1.14178 1.12352,-0.61369 2.05838,-1.57751 3.13551,-2.28353 2.26907,-1.48726 4.47793,-1.29891 5.22585,-4.56706 0.45602,-1.9926 -0.50066,-3.92434 -1.04518,-5.70882 -0.42155,-1.38159 -1.16759,-4.36482 -2.09032,-5.70881 -0.59124,-0.86118 -1.39356,-1.52237 -2.09035,-2.28354 -0.69679,-0.76118 -1.20898,-1.80212 -2.09034,-2.28354 -0.62322,-0.34041 -1.39356,0 -2.09035,0 -0.69678,0 -1.51059,-0.42223 -2.09034,0 -0.64819,0.47207 -0.69678,1.52236 -1.04517,2.28354 -1.51258,3.30476 -1.04517,1.43251 -1.04517,5.70882 0,1.14178 -0.33052,2.34213 0,3.4253 0.39722,1.3018 1.52858,2.19793 2.09034,3.42528 0.49271,1.07647 0.38415,2.46248 1.04517,3.42531 0.46741,0.6808 1.46712,0.63114 2.09035,1.14175 2.99679,2.45534 1.2472,2.70434 5.22586,4.56708 4.96974,2.32671 3.2903,0.35036 8.36137,1.14176 1.09062,0.17019 2.04487,0.97156 3.13551,1.14176 1.37956,0.21529 2.78713,0 4.18068,0 1.04518,0 2.10086,0.16145 3.13552,0 3.77206,-0.58868 5.75791,-1.93062 9.40653,-3.4253 1.03157,-0.42259 2.15012,-0.60354 3.13553,-1.14178 1.12351,-0.61367 2.09033,-1.52235 3.13551,-2.28352 1.04517,-0.76116 2.09035,-1.52235 3.1355,-2.28353 3.95542,-2.88064 2.24728,-1.3132 5.22587,-4.56706 0.69677,-0.76116 1.4991,-1.42234 2.09034,-2.28352 0.84015,-1.22371 2.92193,-7.73423 3.13551,-9.13411 0.17182,-1.12624 0,-2.28354 0,-3.42531 0,-1.52235 0,-3.04469 0,-4.56705 0,-1.52235 0.17284,-3.05647 0,-4.56706 -0.51916,-4.53716 -0.97476,-4.45169 -3.13551,-7.99235 -1.37129,-2.24704 -2.19498,-4.08191 -4.18069,-5.70882 -1.0135,-0.83037 -4.26774,-2.0742 -5.22585,-2.28353 -0.68326,-0.14928 -1.39356,0 -2.09035,0 -0.69678,0 -1.41437,-0.18462 -2.09033,0 -0.75579,0.2064 -1.44216,0.66969 -2.09034,1.14175 -0.40995,0.29856 -0.82484,0.66036 -1.04519,1.14178 -0.69152,1.51088 1.50763,2.47042 2.09035,3.42528 0.43212,0.70811 0.42196,1.77292 1.04518,2.28354 0.88136,0.72212 2.09033,0.76117 3.13551,1.14177 4.12704,1.50282 2.03381,1.14175 6.27102,1.14175 1.39357,0 2.78712,0 4.18069,0 1.04516,0 2.14397,0.36107 3.13551,0 1.19167,-0.43392 2.05838,-1.57751 3.13551,-2.28352 3.25644,-2.13444 1.37353,-0.0585 5.22587,-3.4253 0.76945,-0.67245 1.30201,-1.63764 2.09034,-2.28352 0.62321,-0.51061 1.62293,-0.46095 2.09035,-1.14178 0.66101,-0.96281 0.63599,-2.30785 1.04515,-3.42527 1.35424,-3.69848 1.47089,-1.43691 2.09034,-6.8506 0.17285,-1.5106 -0.19707,-3.06001 0,-4.56706 0.15581,-1.19143 0.86405,-2.23815 1.04518,-3.42528 0.17183,-1.12624 -0.17182,-2.29908 0,-3.42531 0.71465,-4.68416 1.67228,-2.05507 1.04517,-6.85059 -0.13394,-1.02431 -1.49472,-6.69105 -2.09035,-7.99235 -0.56175,-1.22735 -1.39355,-2.28353 -2.09034,-3.42528 -0.69677,-1.14177 -1.20212,-2.455 -2.09034,-3.42532 -0.88822,-0.97029 -2.09033,-1.52233 -3.1355,-2.28352 -0.45229,-0.32937 -4.07805,-3.17451 -5.22587,-3.42528 -1.02486,-0.22392 -2.10456,0.1877 -3.13551,0 -1.08671,-0.19786 -2.04879,-0.94392 -3.13551,-1.14177 -1.14408,-0.2083 -5.31012,-0.43281 -6.27103,1.14177 -0.3865,0.63333 -0.16899,1.54509 0,2.28353 0.18893,0.82561 0.69678,1.52236 1.04517,2.28352 1.06825,2.33393 1.02256,2.83589 3.13552,4.56707 0.62322,0.5106 1.53949,0.53999 2.09034,1.14175 0.55085,0.60176 0.61305,1.57544 1.04516,2.28353 0.93241,1.52787 2.56962,2.28353 4.18069,2.28353 0.34839,0 0.71468,0.12036 1.04517,0 0.73905,-0.26912 1.44216,-0.6697 2.09035,-1.14176 0.40995,-0.29855 0.60448,-0.90106 1.04517,-1.14177 0.31162,-0.1702 0.88937,0.34041 1.04517,0 0.31161,-0.6808 -0.31161,-1.6027 0,-2.28353 0.44068,-0.96282 1.39356,-1.52235 2.09035,-2.28352 0.34838,-0.3806 0.88937,-0.63115 1.04517,-1.14175 0.22034,-0.72213 0,-1.52237 0,-2.28355"
       id="path3907"
       inkscape:connector-curvature="0"
       sodipodi:nodetypes="cscssssscsssssssscccsssscssssscccsccsssssssssccsscsssccsscsccsssscssssssscsccsccsscsscscssssssssssssssscscccsssscscsssscscsccccscscsssssssscsssscsssssccsscsscccscssssssssssssssccccscssscscccssscsssssssssscsccscsscsscsccsccsccsssccssssscssccsscsssssssssccscsscssscsssssssssscsccsssscscsssssssscccccssssscscscsccscsc" />
  </g>
</svg>
